<svg id="visual" viewBox="0 0 900 600" width="900" height="600" xmlns="http://www.w3.org/2000/svg" xmlns:xlink="http://www.w3.org/1999/xlink" version="1.1"><rect x="0" y="0" width="900" height="600" fill="#002233"></rect><path d="M0 498L13.7 500.2C27.3 502.3 54.7 506.7 82 504.5C109.3 502.3 136.7 493.7 163.8 499.5C191 505.3 218 525.7 245.2 525.2C272.3 524.7 299.7 503.3 327 504.5C354.3 505.7 381.7 529.3 409 539.7C436.3 550 463.7 547 491 537.7C518.3 528.3 545.7 512.7 573 509.8C600.3 507 627.7 517 654.8 517.5C682 518 709 509 736.2 500.3C763.3 491.7 790.7 483.3 818 478.8C845.3 474.3 872.7 473.7 886.3 473.3L900 473L900 601L886.3 601C872.7 601 845.3 601 818 601C790.7 601 763.3 601 736.2 601C709 601 682 601 654.8 601C627.7 601 600.3 601 573 601C545.7 601 518.3 601 491 601C463.7 601 436.3 601 409 601C381.7 601 354.3 601 327 601C299.7 601 272.3 601 245.2 601C218 601 191 601 163.8 601C136.7 601 109.3 601 82 601C54.7 601 27.3 601 13.7 601L0 601Z" fill="#0066FF" stroke-linecap="round" stroke-linejoin="miter"></path></svg>