<svg id="visual" viewBox="0 0 900 600" width="900" height="600" xmlns="http://www.w3.org/2000/svg" xmlns:xlink="http://www.w3.org/1999/xlink" version="1.1"><rect x="0" y="0" width="900" height="600" fill="#002233"></rect><path d="M0 472L21.5 478.2C43 484.3 86 496.7 128.8 494.3C171.7 492 214.3 475 257.2 476C300 477 343 496 385.8 487.5C428.7 479 471.3 443 514.2 426.3C557 409.7 600 412.3 642.8 427.8C685.7 443.3 728.3 471.7 771.2 484.8C814 498 857 496 878.5 495L900 494L900 601L878.5 601C857 601 814 601 771.2 601C728.3 601 685.7 601 642.8 601C600 601 557 601 514.2 601C471.3 601 428.7 601 385.8 601C343 601 300 601 257.2 601C214.3 601 171.7 601 128.8 601C86 601 43 601 21.5 601L0 601Z" fill="#0066FF" stroke-linecap="round" stroke-linejoin="miter"></path></svg>