<svg id="visual" viewBox="0 0 900 600" width="900" height="600" xmlns="http://www.w3.org/2000/svg" xmlns:xlink="http://www.w3.org/1999/xlink" version="1.1"><rect x="0" y="0" width="900" height="600" fill="#002233"></rect><path d="M0 542L13.7 542C27.3 542 54.7 542 82 547.7C109.3 553.3 136.7 564.7 163.8 570.5C191 576.3 218 576.7 245.2 574.2C272.3 571.7 299.7 566.3 327 566.8C354.3 567.3 381.7 573.7 409 577.3C436.3 581 463.7 582 491 579.5C518.3 577 545.7 571 573 570.5C600.3 570 627.7 575 654.8 574.2C682 573.3 709 566.7 736.2 566.5C763.3 566.3 790.7 572.7 818 574.5C845.3 576.3 872.7 573.7 886.3 572.3L900 571L900 601L886.3 601C872.7 601 845.3 601 818 601C790.7 601 763.3 601 736.2 601C709 601 682 601 654.8 601C627.7 601 600.3 601 573 601C545.7 601 518.3 601 491 601C463.7 601 436.3 601 409 601C381.7 601 354.3 601 327 601C299.7 601 272.3 601 245.2 601C218 601 191 601 163.8 601C136.7 601 109.3 601 82 601C54.7 601 27.3 601 13.7 601L0 601Z" fill="#0066FF" stroke-linecap="round" stroke-linejoin="miter"></path></svg>